<svg width="48" height="48" viewBox="0 0 48 48" xmlns="http://www.w3.org/2000/svg">
    <path fill-rule="evenodd" clip-rule="evenodd"
          d="M23.3523 4H10.1757L21.5306 14.4255L23.3523 4ZM9 4.88586V15.8192L20.3228 15.9617V15.2819L9 4.88586ZM20.3228 17.4094L9 17.267V31.0915L20.3228 33.4837V28.4035H24.441L32.9555 17.4943H20.3228V17.4094ZM34.0757 18.4121L26.2774 28.4035L34.0757 28.4035V18.4121ZM20.3228 34.9633L9 32.5712V45H20.3228V34.9633ZM22.9699 14.599L24.8219 4H29.4726L36.7087 14.599L22.9699 14.599ZM38.4616 14.599H39.0908V4H31.2255L38.4616 14.599Z"
          fill="#E11F2C"/>
</svg>
