<svg width="10" height="10" viewBox="0 0 10 10" fill="none" xmlns="http://www.w3.org/2000/svg">
<path d="M9.72782 7.33899L8.33229 5.94346C7.83389 5.44506 6.9866 5.64444 6.78724 6.29234C6.63772 6.74093 6.13932 6.99013 5.69076 6.89043C4.69395 6.64123 3.34826 5.34538 3.09906 4.29873C2.94954 3.85015 3.24858 3.35174 3.69714 3.20224C4.34507 3.00288 4.54443 2.15559 4.04602 1.65719L2.65049 0.261662C2.25177 -0.0872206 1.65369 -0.0872206 1.30481 0.261662L0.357839 1.20863C-0.589128 2.20544 0.45752 4.84697 2.80002 7.18947C5.14251 9.53197 7.78405 10.6285 8.78086 9.63165L9.72782 8.68468C10.0767 8.28596 10.0767 7.68787 9.72782 7.33899Z" fill="white"/>
</svg>
